<svg width="65" height="34" viewBox="0 0 59 34" fill="none" xmlns="http://www.w3.org/2000/svg">
<rect y="0.678711" width="58.1187" height="25.7639" rx="12.882" fill="#FFC629"/>
<path d="M22.6518 14.9609C22.6518 15.6032 22.2012 15.9771 21.463 15.9771H19.9867V13.8968H21.4247C22.1533 13.8968 22.6518 14.2994 22.6518 14.9609ZM22.4792 12.0562C22.4792 12.6697 22.0478 13.0053 21.3384 13.0053H19.9867V11.0975H21.3384C22.0478 11.0975 22.4792 11.4522 22.4792 12.0562ZM23.7446 15.076C23.7446 14.2803 23.1694 13.5709 22.46 13.4462C23.1023 13.2162 23.5912 12.7272 23.5912 11.922C23.5912 10.9825 22.8435 10.206 21.4343 10.206H18.8938V16.8687H21.5589C22.9202 16.8687 23.7446 16.0921 23.7446 15.076ZM25.9292 14.0885C25.9292 12.9669 26.4277 12.6314 27.233 12.6314H27.511V11.5002C26.7633 11.5002 26.236 11.8261 25.9292 12.3534V11.5864H24.8364V16.8687H25.9292V14.0885ZM32.1681 16.8687H33.2514V13.753C33.2514 12.2767 32.3215 11.5002 31.0848 11.5002C30.4521 11.5002 29.8673 11.759 29.5126 12.1904V11.5864H28.4197V16.8687H29.5126V13.916C29.5126 12.9477 30.0399 12.4492 30.8451 12.4492C31.6408 12.4492 32.1681 12.9477 32.1681 13.916V16.8687ZM39.5825 14.2228C39.5825 12.5643 38.3938 11.5002 36.8887 11.5002C35.3836 11.5002 34.1948 12.5643 34.1948 14.2228C34.1948 15.8812 35.3356 16.9549 36.8407 16.9549C38.3554 16.9549 39.5825 15.8812 39.5825 14.2228ZM35.3069 14.2228C35.3069 13.0244 36.045 12.4492 36.8695 12.4492C37.6843 12.4492 38.4609 13.0244 38.4609 14.2228C38.4609 15.4211 37.6556 16.0059 36.8407 16.0059C36.0163 16.0059 35.3069 15.4211 35.3069 14.2228Z" fill="white"/>
<path d="M14.3809 33.0342L6.07872 18.6543L22.6832 18.6543L14.3809 33.0342Z" fill="#FFC629"/>
</svg>
