<svg width="47" height="47" viewBox="0 0 47 47" fill="none" xmlns="http://www.w3.org/2000/svg">
<path d="M7.67743 15.3548C11.9176 15.3548 15.3549 11.9175 15.3549 7.67741C15.3549 3.43728 11.9176 0 7.67743 0C3.4373 0 0 3.43728 0 7.67741C0 11.9175 3.4373 15.3548 7.67743 15.3548Z" fill="#FFC629"/>
<path d="M23.0329 15.3548C27.273 15.3548 30.7103 11.9175 30.7103 7.67741C30.7103 3.43728 27.273 0 23.0329 0C18.7928 0 15.3555 3.43728 15.3555 7.67741C15.3555 11.9175 18.7928 15.3548 23.0329 15.3548Z" fill="#FFC629"/>
<path d="M38.3864 15.3548C42.6265 15.3548 46.0638 11.9175 46.0638 7.67741C46.0638 3.43728 42.6265 0 38.3864 0C34.1463 0 30.709 3.43728 30.709 7.67741C30.709 11.9175 34.1463 15.3548 38.3864 15.3548Z" fill="#FFC629"/>
<path d="M7.67743 30.7098C11.9176 30.7098 15.3549 27.2726 15.3549 23.0324C15.3549 18.7923 11.9176 15.355 7.67743 15.355C3.4373 15.355 0 18.7923 0 23.0324C0 27.2726 3.4373 30.7098 7.67743 30.7098Z" fill="#0082CB"/>
<path d="M23.0329 30.7098C27.273 30.7098 30.7103 27.2726 30.7103 23.0324C30.7103 18.7923 27.273 15.355 23.0329 15.355C18.7928 15.355 15.3555 18.7923 15.3555 23.0324C15.3555 27.2726 18.7928 30.7098 23.0329 30.7098Z" fill="#0082CB"/>
<path d="M38.3864 30.7098C42.6265 30.7098 46.0638 27.2726 46.0638 23.0324C46.0638 18.7923 42.6265 15.355 38.3864 15.355C34.1463 15.355 30.709 18.7923 30.709 23.0324C30.709 27.2726 34.1463 30.7098 38.3864 30.7098Z" fill="#0082CB"/>
<path d="M7.67743 46.0647C11.9176 46.0647 15.3549 42.6274 15.3549 38.3873C15.3549 34.1472 11.9176 30.7098 7.67743 30.7098C3.4373 30.7098 0 34.1472 0 38.3873C0 42.6274 3.4373 46.0647 7.67743 46.0647Z" fill="#F5333F"/>
<path d="M23.0329 46.0647C27.273 46.0647 30.7103 42.6274 30.7103 38.3873C30.7103 34.1472 27.273 30.7098 23.0329 30.7098C18.7928 30.7098 15.3555 34.1472 15.3555 38.3873C15.3555 42.6274 18.7928 46.0647 23.0329 46.0647Z" fill="#F5333F"/>
<path d="M38.3864 46.0647C42.6265 46.0647 46.0638 42.6274 46.0638 38.3873C46.0638 34.1472 42.6265 30.7098 38.3864 30.7098C34.1463 30.7098 30.709 34.1472 30.709 38.3873C30.709 42.6274 34.1463 46.0647 38.3864 46.0647Z" fill="#F5333F"/>
</svg>
