<svg width="31" height="31" viewBox="0 0 31 31" fill="none" xmlns="http://www.w3.org/2000/svg">
<path d="M15.3725 0C6.88254 0 0 6.88256 0 15.3725C0 15.3725 0 26.7679 0 28.1829C0 29.5979 1.1471 30.745 2.56209 30.745C3.39833 30.745 4.13966 30.3434 4.60724 29.7235C5.04868 28.9517 5.87935 28.4311 6.83218 28.4311C7.78513 28.4311 8.61596 28.9518 9.0574 29.7237C9.52497 30.3435 10.2662 30.745 11.1023 30.745C11.9385 30.745 12.6797 30.3435 13.1473 29.7237C13.5887 28.9518 14.4195 28.4311 15.3725 28.4311C16.3253 28.4311 17.156 28.9517 17.5975 29.7235C18.0651 30.3434 18.8064 30.745 19.6426 30.745C20.4789 30.745 21.2202 30.3434 21.6878 29.7235C22.1292 28.9517 22.9599 28.4311 23.9127 28.4311C24.8656 28.4311 25.6963 28.9517 26.1377 29.7235C26.6053 30.3434 27.3466 30.745 28.1829 30.745C29.5979 30.745 30.745 29.5979 30.745 28.1829C30.745 26.7679 30.745 15.3725 30.745 15.3725C30.745 6.88245 23.8625 0 15.3725 0Z" fill="#00AE42"/>
<path d="M10.2493 17.9361C12.3718 17.9361 14.0925 16.2155 14.0925 14.093C14.0925 11.9705 12.3718 10.2499 10.2493 10.2499C8.12682 10.2499 6.40619 11.9705 6.40619 14.093C6.40619 16.2155 8.12682 17.9361 10.2493 17.9361Z" fill="white"/>
<path d="M20.4978 17.9349C22.6203 17.9349 24.3409 16.2143 24.3409 14.0918C24.3409 11.9693 22.6203 10.2487 20.4978 10.2487C18.3753 10.2487 16.6547 11.9693 16.6547 14.0918C16.6547 16.2143 18.3753 17.9349 20.4978 17.9349Z" fill="white"/>
</svg>
