<svg width="80" height="80" viewBox="0 0 80 80" fill="none" xmlns="http://www.w3.org/2000/svg">
<path d="M40 0C17.9085 0 0 17.9085 0 40C0 62.0915 17.9085 80 40 80C62.0915 80 80 62.0915 80 40C80 17.9085 62.0915 0 40 0ZM57.0792 43.7456L40.0003 60.8245L22.9211 43.7456L22.9323 43.7408C21.1207 41.9308 20 39.4297 20 36.6664C20 31.1435 24.4771 26.6664 30 26.6664C35.5229 26.6664 40 31.1435 40 36.6664C40 31.1435 44.4771 26.6664 50 26.6664C55.5229 26.6664 60 31.1435 60 36.6664C60 39.4297 58.8793 41.9308 57.0677 43.7408L57.0792 43.7456Z" fill="#00AE42"/>
</svg>
