<svg width="101" height="20" viewBox="0 0 101 20" fill="none" xmlns="http://www.w3.org/2000/svg">
<path d="M21.8896 10.0251C21.8896 5.58189 25.3352 2.00024 29.7787 2.00024C31.8415 2.00024 33.6775 2.79372 35.038 4.0404L33.6097 5.3778C32.6123 4.49382 31.2521 3.90442 29.7787 3.90442C26.4914 3.90442 23.9526 6.66995 23.9526 10.0251C23.9526 13.3803 26.4914 16.1229 29.7787 16.1229C32.4763 16.1229 34.5391 14.5815 34.8566 12.156C34.8792 12.0424 34.9018 11.9064 34.9018 11.7705H30.3681V9.97963H37.1687C37.1687 15.4428 34.2217 18.0271 29.7787 18.0271C25.3355 18.0273 21.8896 14.4455 21.8896 10.0251Z" fill="#898A8D"/>
<path d="M39.2094 12.4505V2.1814H41.2721V12.4505C41.2721 14.8988 42.9498 16.0548 44.8992 16.0548C46.8489 16.0548 48.5264 14.8988 48.5264 12.4505V2.1814H50.5896V12.4505C50.5896 15.9871 47.9824 18.0273 44.8995 18.0273C41.8163 18.0273 39.2094 15.9871 39.2094 12.4505Z" fill="#898A8D"/>
<path d="M52.5953 10.0251C52.5953 5.58189 56.0407 2.00024 60.4842 2.00024C62.5469 2.00024 64.383 2.79372 65.7435 4.0404L64.3154 5.3778C63.3178 4.49382 61.9578 3.90442 60.4842 3.90442C57.1971 3.90442 54.6581 6.66995 54.6581 10.0251C54.6581 13.3803 57.1971 16.1229 60.4842 16.1229C63.1816 16.1229 65.2448 14.5815 65.5618 12.156C65.5844 12.0424 65.6073 11.9064 65.6073 11.7705H61.0733V9.97963H67.8744C67.8744 15.4428 64.9272 18.0271 60.4842 18.0271C56.0407 18.0273 52.5953 14.4455 52.5953 10.0251Z" fill="#898A8D"/>
<path d="M69.4352 16.668C69.4352 15.8516 70.0931 15.2616 70.8642 15.2616C71.6582 15.2616 72.3388 15.8516 72.3388 16.668C72.3388 17.462 71.6582 18.0291 70.8642 18.0291C70.0931 18.0291 69.4352 17.462 69.4352 16.668Z" fill="#898A8D"/>
<path d="M73.8336 10.025C73.8336 5.60441 77.3472 2.02277 81.768 2.02277C84.1706 2.02277 86.2564 3.04295 87.6391 4.67517L86.1429 5.94469C85.1001 4.72042 83.5133 3.92694 81.768 3.92694C78.4809 3.92694 75.8964 6.67007 75.8964 10.025C75.8964 13.3573 78.4809 16.1228 81.768 16.1228C83.5133 16.1228 85.1001 15.3294 86.1429 14.1053L87.6391 15.3748C86.2564 17.007 84.1706 18.0272 81.768 18.0272C77.3472 18.0272 73.8336 14.4454 73.8336 10.025Z" fill="#898A8D"/>
<path d="M100.177 3.94959L91.8341 15.8964H100.176V17.8005H89.295V16.0324L97.5919 4.08557H89.5896V2.1814H100.176V3.94959H100.177Z" fill="#898A8D"/>
<path d="M13.4447 7.73774C13.4447 7.0976 13.9704 6.57872 14.6103 6.57872C15.2503 6.57872 15.7691 7.09738 15.7694 7.73752L15.7652 2.25237C15.7654 1.00833 14.7569 0 13.513 0H11.258C9.97578 0 8.93626 1.03952 8.93626 2.32178V11.4138C8.93626 11.6887 8.93626 12.123 8.88244 12.4769C8.81039 12.9512 8.42265 13.3266 7.94375 13.3534C7.9242 13.3545 7.90421 13.3551 7.884 13.3551C7.86379 13.3551 7.8438 13.3545 7.82425 13.3534C7.34491 13.3266 6.9563 12.9507 6.8849 12.476C6.86381 12.335 6.85107 12.181 6.84338 12.0292C6.86601 12.7205 6.95674 13.4725 7.31437 14.0983C7.63291 14.6398 8.23022 15.1914 9.01974 15.4753C9.85452 15.1787 10.4578 14.5935 10.7666 14.068C11.2167 13.2805 11.2543 12.3251 11.2543 11.4138V3.20248C11.2543 2.71391 11.6504 2.31783 12.139 2.31783H12.5605C13.0491 2.31783 13.4449 2.71391 13.4449 3.20226V7.73774H13.4447Z" fill="#0082CB"/>
<path d="M7.9471 20C10.8563 19.9795 12.7102 18.6314 13.7543 17.4978L13.7629 17.4886C14.8791 16.263 15.5304 14.7681 15.7101 13.0362C15.5855 14.0166 15.2268 15.0774 14.354 16.0357C13.5564 16.9019 12.2117 17.8133 10.1377 17.8133C9.59117 17.8133 9.09667 17.7487 8.64809 17.6395C8.40491 17.6681 8.14964 17.6839 7.88141 17.6839C5.77359 17.6839 4.45135 16.7287 3.71345 15.9274C2.77454 14.8964 2.31783 13.6212 2.31783 12.0292C2.31783 12.0292 2.31783 7.73927 2.31783 7.73752C2.31783 7.09737 1.79895 6.57849 1.15881 6.57849C0.518661 6.57849 0 7.09759 0 7.73752V12.0292C0 14.1945 0.672876 16.0313 1.99995 17.4884L2.00852 17.4976C3.05265 18.6314 4.90652 19.9793 7.81595 19.9998H7.9471V20Z" fill="#00AE42"/>
<path d="M10.1497 15.6711H10.1379C9.73386 15.6711 9.35931 15.5981 9.01991 15.4762L9.01727 15.4753C8.22797 15.1915 7.63044 14.6399 7.31191 14.0984C6.95427 13.4725 6.86354 12.7206 6.84092 12.0292C6.84114 12.0354 6.83916 11.9857 6.8385 11.9552C6.83433 11.7913 6.83345 11.6312 6.83345 11.4776L6.82927 2.25221C6.82927 1.00839 5.82095 6.10352e-05 4.57691 6.10352e-05H2.31466C1.03635 6.10352e-05 0.00012207 1.03629 0.00012207 2.3146V7.73758C0.00012207 7.09744 0.519003 6.57856 1.15915 6.57856C1.79929 6.57856 2.31817 7.09744 2.31817 7.73758V3.24691C2.31817 2.73396 2.73402 2.31811 3.24697 2.31811H3.62768C4.11448 2.31811 4.50903 2.71265 4.50903 3.19946V12.0934C4.50903 13.3012 4.75968 14.7598 5.922 16.0359C6.50942 16.6739 7.39495 17.3351 8.64865 17.64C9.09724 17.7492 9.59173 17.8138 10.1383 17.8138C10.729 17.8138 11.2079 17.3349 11.2079 16.7442C11.2077 16.153 10.7404 15.6711 10.1497 15.6711Z" fill="#FFC629"/>
<path d="M15.7667 7.73752C15.7667 7.09737 15.2478 6.57849 14.6077 6.57849C13.9675 6.57849 13.4421 7.09737 13.4421 7.73752V11.4773C13.4421 12.2978 13.4192 13.3007 12.9634 14.0983C12.5076 14.8731 11.4937 15.6708 10.1491 15.6708C10.7398 15.6708 11.2071 16.1527 11.2071 16.7435C11.2071 17.3342 10.7282 17.8131 10.1375 17.8131C12.2114 17.8131 13.5559 16.9014 14.3537 16.0354C15.5161 14.7593 15.7667 13.3007 15.7667 12.0929V7.73752Z" fill="#F5333F"/>
</svg>
