<svg width="91" height="40" viewBox="0 0 91 40" fill="none" xmlns="http://www.w3.org/2000/svg">
<rect x="0.874695" width="89.8742" height="31.1661" rx="15.583" fill="#4285F4"/>
<path d="M31.5951 15.6503C31.5951 13.2382 29.7744 11.5335 27.4783 11.5335C25.2053 11.5335 23.3615 13.2382 23.3615 15.6503C23.3615 18.074 25.2053 19.7787 27.4783 19.7787C29.7744 19.7787 31.5951 18.074 31.5951 15.6503ZM24.7183 15.6503C24.7183 13.8296 25.8779 12.6931 27.4783 12.6931C29.0786 12.6931 30.2383 13.8296 30.2383 15.6503C30.2383 17.4709 29.0786 18.6306 27.4783 18.6306C25.8779 18.6306 24.7183 17.4709 24.7183 15.6503ZM37.5463 17.9116C37.4767 15.6039 33.8701 16.3229 33.8701 15.0356C33.8701 14.6066 34.2412 14.3167 34.9486 14.3167C35.6676 14.3167 36.0967 14.6993 36.1431 15.256H37.4651C37.3955 13.9803 36.4446 13.2034 34.995 13.2034C33.4874 13.2034 32.5365 14.0267 32.5365 15.0472C32.5365 17.3898 36.2475 16.6708 36.2475 17.9232C36.2475 18.3639 35.8416 18.6886 35.0762 18.6886C34.3456 18.6886 33.8469 18.2595 33.8006 17.7377H32.4322C32.4901 18.8973 33.5686 19.8019 35.0994 19.8019C36.607 19.8019 37.5463 18.9901 37.5463 17.9116ZM39.0675 17.9232C39.0675 19.222 39.7749 19.6975 40.9114 19.6975H41.9551V18.5958H41.1433C40.5867 18.5958 40.4012 18.3987 40.4012 17.9232V14.3862H41.9551V13.3077H40.4012V11.719H39.0675V13.3077H38.3137V14.3862H39.0675V17.9232ZM44.3796 16.3345C44.3796 14.9777 44.9827 14.5718 45.9568 14.5718H46.2931V13.2034C45.3885 13.2034 44.7507 13.5977 44.3796 14.2355V13.3077H43.0576V19.6975H44.3796V16.3345ZM46.9516 16.4736C46.9516 18.4451 48.2853 19.8019 49.9436 19.8019C51.0105 19.8019 51.7759 19.2916 52.1817 18.7466V19.6975H53.5154V13.3077H52.1817V14.2355C51.7875 13.7136 51.0453 13.2034 49.9668 13.2034C48.2853 13.2034 46.9516 14.5022 46.9516 16.4736ZM52.1817 16.4968C52.1817 17.8768 51.2424 18.6538 50.2451 18.6538C49.2594 18.6538 48.3084 17.8536 48.3084 16.4736C48.3084 15.0936 49.2594 14.3514 50.2451 14.3514C51.2424 14.3514 52.1817 15.1284 52.1817 16.4968ZM54.382 13.3077L56.8057 19.6975H58.3829L60.8182 13.3077H59.415L57.6059 18.5146L55.7968 13.3077H54.382ZM61.2608 16.4736C61.2608 18.4451 62.5945 19.8019 64.2528 19.8019C65.3197 19.8019 66.0851 19.2916 66.4909 18.7466V19.6975H67.8246V13.3077H66.4909V14.2355C66.0967 13.7136 65.3545 13.2034 64.276 13.2034C62.5945 13.2034 61.2608 14.5022 61.2608 16.4736ZM66.4909 16.4968C66.4909 17.8768 65.5516 18.6538 64.5543 18.6538C63.5686 18.6538 62.6177 17.8536 62.6177 16.4736C62.6177 15.0936 63.5686 14.3514 64.5543 14.3514C65.5516 14.3514 66.4909 15.1284 66.4909 16.4968Z" fill="white"/>
<path d="M46.4179 39.1382L36.3251 21.7432L56.5108 21.7432L46.4179 39.1382Z" fill="#4285F4"/>
</svg>
