<svg width="65" height="34" viewBox="0 0 65 34" fill="none" xmlns="http://www.w3.org/2000/svg">
<rect y="0.678711" width="64.7094" height="25.7639" rx="12.882" fill="#00AE42"/>
<path d="M20.058 13.2737V11.0975H21.2659C22.1191 11.0975 22.5026 11.5002 22.5026 12.1904C22.5026 12.8615 22.1191 13.2737 21.2659 13.2737H20.058ZM23.6242 12.1904C23.6242 11.1071 22.8477 10.206 21.2659 10.206H18.9651V16.8687H20.058V14.1652H21.2659C23.0011 14.1652 23.6242 13.1395 23.6242 12.1904ZM25.6635 14.0885C25.6635 12.9669 26.162 12.6314 26.9673 12.6314H27.2453V11.5002C26.4976 11.5002 25.9703 11.8261 25.6635 12.3534V11.5864H24.5707V16.8687H25.6635V14.0885ZM27.7897 14.2036C27.7897 15.8333 28.8922 16.9549 30.2631 16.9549C31.145 16.9549 31.7777 16.5331 32.1133 16.0826V16.8687H33.2157V11.5864H32.1133V12.3534C31.7873 11.922 31.1738 11.5002 30.2822 11.5002C28.8922 11.5002 27.7897 12.5739 27.7897 14.2036ZM32.1133 14.2228C32.1133 15.3636 31.3368 16.0059 30.5123 16.0059C29.6975 16.0059 28.9114 15.3444 28.9114 14.2036C28.9114 13.0628 29.6975 12.4492 30.5123 12.4492C31.3368 12.4492 32.1133 13.0915 32.1133 14.2228ZM34.5553 16.8687H35.6482V13.916C35.6482 12.9477 36.1754 12.4492 36.9807 12.4492C37.7764 12.4492 38.3037 12.9477 38.3037 13.916V16.8687H39.3869V13.753C39.3869 12.2767 38.4666 11.5002 37.2875 11.5002C36.6068 11.5002 36.0125 11.759 35.6482 12.2V9.77458H34.5553V16.8687ZM40.3208 14.2036C40.3208 15.8333 41.4233 16.9549 42.7942 16.9549C43.6761 16.9549 44.3088 16.5331 44.6444 16.0826V16.8687H45.7468V11.5864H44.6444V12.3534C44.3184 11.922 43.7049 11.5002 42.8133 11.5002C41.4233 11.5002 40.3208 12.5739 40.3208 14.2036ZM44.6444 14.2228C44.6444 15.3636 43.8678 16.0059 43.0434 16.0059C42.2285 16.0059 41.4424 15.3444 41.4424 14.2036C41.4424 13.0628 42.2285 12.4492 43.0434 12.4492C43.8678 12.4492 44.6444 13.0915 44.6444 14.2228Z" fill="white"/>
<path d="M49.7313 33.0342L41.4291 18.6543L58.0336 18.6543L49.7313 33.0342Z" fill="#00AE42"/>
</svg>
