<svg width="66" height="66" viewBox="0 0 66 66" fill="none" xmlns="http://www.w3.org/2000/svg">
<path d="M35.7499 0.168457H30.25V22.1123H35.7499V0.168457Z" fill="#0082CB"/>
<path d="M35.7499 44.0542H30.25V65.9966H35.7499V44.0542Z" fill="#FFC629"/>
<path d="M66 35.8237V30.3394L44.0002 30.3394V35.8237L66 35.8237Z" fill="#00AE42"/>
<path d="M22 35.8237V30.3394L0.000183105 30.3394V35.8237L22 35.8237Z" fill="#F5333F"/>
<path d="M58.274 11.7403L54.3848 7.86182L38.8278 23.3759L42.717 27.2544L58.274 11.7403Z" fill="#0082CB"/>
<path d="M27.1624 42.7734L23.2734 38.8945L7.71736 54.4102L11.6064 58.2891L27.1624 42.7734Z" fill="#FFC629"/>
<path d="M54.3981 58.2903L58.2871 54.4116L42.7311 38.8968L38.8421 42.7754L54.3981 58.2903Z" fill="#00AE42"/>
<path d="M23.2829 27.2588L27.1719 23.3799L11.6158 7.86423L7.72681 11.7431L23.2829 27.2588Z" fill="#F5333F"/>
</svg>
