<svg width="118" height="119" viewBox="0 0 118 119" fill="none" xmlns="http://www.w3.org/2000/svg">
<path d="M29.5005 59.001C45.7932 59.001 59.001 45.7932 59.001 29.5005C59.001 13.2078 45.7932 0 29.5005 0C13.2078 0 0 13.2078 0 29.5005C0 45.7932 13.2078 59.001 29.5005 59.001Z" fill="#00AE42"/>
<path d="M29.5005 118.002C45.7932 118.002 59.001 104.794 59.001 88.5015C59.001 72.2088 45.7932 59.001 29.5005 59.001C13.2078 59.001 0 72.2088 0 88.5015C0 104.794 13.2078 118.002 29.5005 118.002Z" fill="#F5333F"/>
<path d="M117.999 0H58.998V59.001H117.999V0Z" fill="#FFC629"/>
<path d="M58.998 118.002V59.001H117.999C117.999 91.5866 91.5837 118.002 58.998 118.002Z" fill="#0082CB"/>
</svg>
