<svg width="34" height="42" viewBox="0 0 34 42" fill="none" xmlns="http://www.w3.org/2000/svg">
<path d="M28.2281 16.2493C28.2281 14.905 29.332 13.8153 30.6759 13.8153C32.0197 13.8153 33.1094 14.9045 33.1098 16.2488L33.101 4.72997C33.1015 2.11748 30.9836 0 28.3715 0H23.636C20.9433 0 18.7603 2.18299 18.7603 4.87575V23.9691C18.7603 24.5462 18.7603 25.4583 18.6473 26.2014C18.4959 27.1974 17.6817 27.9859 16.676 28.0421C16.635 28.0444 16.593 28.0458 16.5505 28.0458C16.5081 28.0458 16.4661 28.0444 16.4251 28.0421C15.4184 27.9859 14.6024 27.1965 14.4524 26.1996C14.4081 25.9034 14.3814 25.58 14.3652 25.2613C14.4128 26.7131 14.6033 28.2922 15.3543 29.6065C16.0232 30.7437 17.2776 31.902 18.9356 32.4981C20.6886 31.8753 21.9554 30.6463 22.604 29.5428C23.5493 27.889 23.6282 25.8827 23.6282 23.9691V6.7252C23.6282 5.69922 24.46 4.86745 25.4859 4.86745H26.3712C27.3972 4.86745 28.2285 5.69922 28.2285 6.72474V16.2493H28.2281Z" fill="#0082CB"/>
<path d="M16.6889 41.9996C22.7982 41.9567 26.6914 39.1255 28.8841 36.7451L28.902 36.7257C31.246 34.152 32.6139 31.0127 32.9912 27.3756C32.7297 29.4345 31.9763 31.6622 30.1435 33.6745C28.4684 35.4935 25.6446 37.4076 21.2893 37.4076C20.1415 37.4076 19.103 37.2719 18.161 37.0427C17.6503 37.1026 17.1143 37.1358 16.551 37.1358C12.1246 37.1358 9.34784 35.13 7.79825 33.4471C5.82654 31.2821 4.86745 28.6041 4.86745 25.2609C4.86745 25.2609 4.86745 16.2521 4.86745 16.2484C4.86745 14.9041 3.7778 13.8145 2.43349 13.8145C1.08919 13.8145 0 14.9046 0 16.2484V25.2609C0 29.8081 1.41304 33.6653 4.19991 36.7253L4.2179 36.7446C6.41058 39.1255 10.3037 41.9562 16.4135 41.9991H16.6889V41.9996Z" fill="#00AE42"/>
<path d="M21.3142 32.9091H21.2892C20.4409 32.9091 19.6543 32.756 18.9416 32.4999L18.936 32.4981C17.2785 31.902 16.0237 30.7437 15.3548 29.6065C14.6037 28.2922 14.4132 26.7131 14.3657 25.2613C14.3661 25.2742 14.362 25.1699 14.3606 25.1058C14.3518 24.7616 14.35 24.4253 14.35 24.1029L14.3412 4.72951C14.3412 2.11748 12.2237 0 9.61126 0H4.86053C2.17607 0 0 2.17607 0 4.86053V16.2488C0 14.9045 1.08965 13.8149 2.43395 13.8149C3.77826 13.8149 4.86791 14.9045 4.86791 16.2488V6.81839C4.86791 5.7412 5.7412 4.86791 6.81839 4.86791H7.61787C8.64017 4.86791 9.46871 5.69645 9.46871 6.71875V25.396C9.46871 27.9323 9.99508 30.9955 12.436 33.6754C13.6695 35.0151 15.5291 36.4037 18.1619 37.044C19.104 37.2733 20.1424 37.4089 21.2902 37.4089C22.5307 37.4089 23.5364 36.4032 23.5364 35.1627C23.5359 33.9213 22.5547 32.9091 21.3142 32.9091Z" fill="#FFC629"/>
<path d="M33.1125 16.2484C33.1125 14.9041 32.0228 13.8145 30.6785 13.8145C29.3342 13.8145 28.2307 14.9041 28.2307 16.2484V24.102C28.2307 25.8251 28.1828 27.931 27.2255 29.6061C26.2683 31.2332 24.1392 32.9083 21.3155 32.9083C22.556 32.9083 23.5372 33.9204 23.5372 35.1609C23.5372 36.4014 22.5315 37.4071 21.291 37.4071C25.6464 37.4071 28.4697 35.4926 30.1452 33.6741C32.5861 30.9942 33.1125 27.931 33.1125 25.3946V16.2484Z" fill="#F5333F"/>
</svg>
